<svg width="1199" height="81" viewBox="0 0 1199 81" fill="none" xmlns="http://www.w3.org/2000/svg">
<path d="M1008.83 379.293L1008.65 379.401L937.426 531.996L795.151 608.204L794.97 608.311L723.742 760.907L581.467 837.115L581.287 837.222L510.059 989.817L414.389 1041.04H417.255L510.804 990.93L510.984 990.822L582.235 838.227L724.51 762.019L724.69 761.912L795.941 609.317L938.215 533.109L938.396 533.001L1009.62 380.406L1151.9 304.198L1152.08 304.09L1198.95 203.688V200.601L1151.13 303.049L1008.86 379.257L1008.83 379.293ZM991.027 360.232L990.846 360.34L919.619 512.935L777.344 589.143L777.163 589.25L705.935 741.846L563.661 818.053L563.48 818.161L492.252 970.756L360.968 1041.08H363.835L492.997 971.905L493.178 971.797L564.405 819.202L706.68 742.994L706.861 742.887L778.089 590.292L920.363 514.084L920.544 513.976L991.772 361.381L1134.05 285.173L1134.23 285.065L1198.91 146.505V143.418L1133.28 284.024L991.004 360.232H991.027ZM1062.07 -21.1662L990.846 131.429L848.571 207.637L848.391 207.745L777.163 360.34L634.866 436.548L634.685 436.655L563.457 589.25L421.16 665.458L420.979 665.566L349.752 818.161L207.477 894.369L207.296 894.477L138.867 1041.08H140.311L208.267 895.482L350.542 819.274L350.722 819.166L421.95 666.571L564.247 590.363L564.428 590.256L635.656 437.66L777.953 361.453L778.134 361.345L849.361 208.75L991.636 132.542L991.817 132.434L1063.04 -20.1611L1198.98 -92.9588V-94.5023L1062.3 -21.3098L1062.12 -21.2021L1062.07 -21.1662ZM1079.88 -2.10524L1008.65 150.49L866.378 226.698L866.198 226.805L794.97 379.401L652.673 455.609L652.492 455.716L581.264 608.311L438.967 684.519L438.786 684.627L367.559 837.222L225.261 913.43L225.081 913.538L165.544 1041.08H166.988L226.051 914.579L368.326 838.371L368.506 838.263L439.734 685.668L582.032 609.46L582.212 609.352L653.44 456.757L795.715 380.549L795.895 380.442L867.146 227.846L1009.42 151.639L1009.6 151.531L1080.85 -1.06424L1198.95 -64.3135V-65.8571L1080.08 -2.17702L1079.9 -2.06934L1079.88 -2.10524ZM1168.92 551.093L1097.69 703.688L955.413 779.896L955.232 780.003L884.005 932.599L741.73 1008.81L741.549 1008.91L726.541 1041.08H727.985L742.52 1009.96L884.795 933.747L884.975 933.64L956.203 781.044L1098.48 704.837L1098.66 704.729L1169.89 552.134L1198.95 536.555V535.011L1169.12 550.985L1168.94 551.093H1168.92ZM1186.72 570.154L1115.49 722.749L973.22 798.957L973.039 799.064L901.812 951.66L759.537 1027.87L759.356 1027.98L753.24 1041.04H754.684L760.304 1028.98L902.579 952.772L902.76 952.665L973.987 800.069L1116.28 723.862L1116.47 723.754L1187.69 571.159L1198.95 565.128V563.585L1186.93 570.01L1186.74 570.118L1186.72 570.154ZM1044.45 417.451L1044.27 417.558L973.039 570.154L830.764 646.362L830.584 646.469L759.356 799.064L617.081 875.272L616.901 875.38L545.673 1027.98L521.253 1041.04H524.12L546.44 1029.09L546.621 1028.98L617.849 876.385L760.124 800.177L760.304 800.069L831.532 647.474L973.807 571.266L973.987 571.159L1045.21 418.564L1187.49 342.356L1187.67 342.248L1198.93 318.126V315.039L1186.72 341.207L1044.45 417.415V417.451ZM1026.64 398.39L1026.46 398.497L955.232 551.093L812.958 627.301L812.777 627.408L741.549 780.003L599.274 856.211L599.094 856.319L527.866 1008.91L467.833 1041.08H470.699L528.633 1010.06L528.814 1009.96L600.042 857.36L742.317 781.152L742.497 781.044L813.725 628.449L956 552.241L956.18 552.134L1027.41 399.539L1169.68 323.331L1169.86 323.223L1198.93 260.943V257.856L1168.92 322.182L1026.64 398.39ZM1151.11 74.2103L1079.88 226.805L937.606 303.013L937.426 303.121L866.198 455.716L723.923 531.924L723.742 532.032L652.515 684.627L510.24 760.835L510.059 760.943L438.831 913.538L296.557 989.745L296.376 989.853L272.453 1041.08H273.897L297.324 990.858L439.599 914.651L439.779 914.543L511.007 761.948L653.282 685.74L653.463 685.632L724.69 533.037L866.965 456.829L867.146 456.721L938.373 304.126L1080.65 227.918L1080.83 227.811L1152.06 75.2154L1198.93 50.1239V48.5804L1151.29 74.1026L1151.11 74.2103ZM1186.72 112.368L1115.49 264.963L973.22 341.171L973.039 341.279L901.812 493.874L759.537 570.082L759.356 570.19L688.106 722.785L545.831 798.993L545.65 799.1L474.423 951.695L332.148 1027.9L331.967 1028.01L325.851 1041.08H327.295L332.915 1029.02L475.19 952.808L475.371 952.701L546.598 800.105L688.873 723.897L689.054 723.79L760.304 571.195L902.579 494.987L902.76 494.879L973.987 342.284L1116.28 266.076L1116.47 265.968L1187.69 113.373L1198.95 107.343V105.799L1186.93 112.224L1186.74 112.332L1186.72 112.368ZM1168.92 93.3071L1097.69 245.902L955.413 322.11L955.232 322.218L884.005 474.813L741.73 551.021L741.549 551.129L670.322 703.724L528.047 779.932L527.866 780.039L456.638 932.635L314.363 1008.84L314.183 1008.95L299.174 1041.11H300.619L315.153 1009.99L457.428 933.783L457.609 933.676L528.837 781.08L671.112 704.872L671.292 704.765L742.52 552.17L884.795 475.962L884.975 475.854L956.203 323.259L1098.48 247.051L1098.66 246.943L1169.89 94.3481L1198.95 78.7691V77.2256L1169.12 93.1994L1168.94 93.3071H1168.92ZM1097.69 16.9916L1026.44 169.587L884.163 245.795L883.982 245.902L812.754 398.497L670.48 474.705L670.299 474.813L599.071 627.408L456.796 703.616L456.616 703.724L385.388 856.319L243.113 932.527L242.933 932.635L192.31 1041.08H193.755L243.903 933.64L386.178 857.432L386.359 857.324L457.586 704.729L599.861 628.521L600.042 628.413L671.269 475.818L813.544 399.61L813.725 399.503L884.953 246.907L1027.25 170.7L1027.43 170.592L1098.66 17.9967L1198.95 -35.7042V-37.2477L1097.89 16.8839L1097.71 16.9916H1097.69ZM1044.45 -40.3348L1044.27 -40.2271L973.039 112.368L830.764 188.576L830.584 188.684L759.356 341.279L617.081 417.487L616.901 417.594L545.673 570.19L403.398 646.397L403.218 646.505L331.99 799.1L189.715 875.308L189.534 875.416L118.307 1028.01L93.887 1041.08H96.7533L119.074 1029.12L119.255 1029.02L190.482 876.421L332.757 800.213L332.938 800.105L404.165 647.51L546.463 571.302L546.643 571.195L617.871 418.599L760.146 342.392L760.327 342.284L831.554 189.689L973.829 113.481L974.01 113.373L1045.24 -39.222L1187.51 -115.466L1187.69 -115.573L1198.95 -139.696V-142.783L1186.74 -116.614L1044.47 -40.4066L1044.45 -40.3348ZM1115.49 36.0884L1044.27 188.684L901.97 264.891L901.789 264.999L830.561 417.594L688.286 493.802L688.106 493.91L616.878 646.505L474.603 722.713L474.423 722.821L403.195 875.416L260.92 951.624L260.74 951.731L219.009 1041.11H220.454L261.687 952.772L403.962 876.564L404.143 876.457L475.371 723.862L617.646 647.654L617.826 647.546L689.054 494.951L831.329 418.743L831.509 418.635L902.737 266.04L1045.03 189.832L1045.21 189.725L1116.44 37.1294L1198.93 -7.05891V-8.60249L1115.68 35.9807L1115.49 36.0884ZM1151.11 532.068L1079.88 684.663L937.606 760.871L937.426 760.978L866.198 913.573L723.9 989.781L723.72 989.889L699.797 1041.11H701.241L724.668 990.894L866.943 914.686L867.123 914.579L938.351 761.984L1080.63 685.776L1080.81 685.668L1152.03 533.073L1198.91 507.981V506.438L1151.27 531.96L1151.09 532.068H1151.11ZM1168.92 -135.568L1026.64 -59.3598L1026.46 -59.2522L955.232 93.343L812.958 169.551L812.777 169.659L741.549 322.254L599.274 398.462L599.094 398.569L527.866 551.164L385.591 627.372L385.411 627.48L314.183 780.075L171.908 856.283L171.727 856.391L100.5 1008.99L40.4662 1041.15H43.3325L101.267 1010.13L101.448 1010.03L172.675 857.432L314.95 781.224L315.131 781.116L386.359 628.521L528.656 552.313L528.837 552.206L600.064 399.61L742.339 323.402L742.52 323.295L813.747 170.7L956.022 94.4917L956.203 94.384L1027.43 -58.2112L1169.71 -134.419L1169.89 -134.527L1198.95 -196.771V-199.858L1168.94 -135.532L1168.92 -135.568ZM1133.3 55.1852L1062.07 207.78L919.777 283.988L919.596 284.096L848.368 436.691L706.093 512.899L705.913 513.007L634.685 665.602L492.41 741.81L492.23 741.917L421.002 894.513L278.727 970.72L278.546 970.828L245.731 1041.15H247.176L279.517 971.869L421.792 895.661L421.972 895.554L493.223 742.958L635.498 666.751L635.678 666.643L706.928 514.048L849.203 437.84L849.384 437.732L920.612 285.137L1062.91 208.929L1063.09 208.821L1134.32 56.2263L1199 21.5863V20.0428L1133.55 55.0776L1133.37 55.1852H1133.3ZM1097.69 932.67L1047.07 1041.11H1048.51L1098.66 933.676L1198.95 879.975V878.431L1097.89 932.563L1097.71 932.67H1097.69ZM1115.49 951.731L1073.76 1041.11H1075.21L1116.47 952.772L1198.95 908.584V907.041L1115.7 951.624L1115.52 951.731H1115.49ZM1062.07 894.513L993.645 1041.11H995.089L1063.04 895.518L1198.98 822.72V821.177L1062.3 894.369L1062.12 894.477L1062.07 894.513ZM1133.3 970.828L1100.49 1041.15H1101.93L1134.27 971.869L1198.95 937.229V935.686L1133.5 970.72L1133.32 970.828H1133.3ZM1044.45 875.344L1044.27 875.452L973.039 1028.05L948.62 1041.11H951.486L973.807 1029.16L973.987 1029.05L1045.21 876.457L1187.49 800.249L1187.67 800.141L1198.93 776.019V772.932L1186.72 799.1L1044.45 875.308V875.344ZM1186.72 1028.05L1180.61 1041.11H1182.05L1187.67 1029.05L1198.93 1023.02V1021.48L1186.9 1027.9L1186.72 1028.01V1028.05ZM1168.92 1008.99L1153.91 1041.15H1155.35L1169.89 1010.03L1198.95 994.448V992.904L1169.12 1008.88L1168.94 1008.99H1168.92ZM1133.3 513.007L1062.07 665.602L919.777 741.81L919.596 741.917L848.368 894.513L706.093 970.72L705.913 970.828L673.098 1041.15H674.542L706.883 971.869L849.158 895.661L849.339 895.554L920.567 742.958L1062.86 666.751L1063.04 666.643L1134.27 514.048L1198.95 479.408V477.864L1133.5 512.899L1133.32 513.007H1133.3ZM1151.11 989.889L1127.19 1041.11H1128.63L1152.06 990.894L1198.93 965.803V964.259L1151.29 989.781L1151.11 989.889ZM1026.64 856.247L1026.46 856.355L955.232 1008.95L895.199 1041.11H898.065L956 1010.1L956.18 1009.99L1027.41 857.396L1169.68 781.188L1169.86 781.08L1198.93 718.8V715.713L1168.92 780.039L1026.64 856.247ZM1079.88 455.752L1008.65 608.347L866.378 684.555L866.198 684.663L794.97 837.258L652.673 913.466L652.492 913.573L592.955 1041.11H594.399L653.463 914.615L795.737 838.407L795.918 838.299L867.146 685.704L1009.42 609.496L1009.6 609.388L1080.83 456.793L1198.93 393.544V392L1080.06 455.68L1079.88 455.788V455.752ZM1115.49 493.91L1044.27 646.505L901.97 722.713L901.789 722.821L830.561 875.416L688.286 951.624L688.106 951.731L646.376 1041.11H647.82L689.054 952.772L831.329 876.564L831.509 876.457L902.737 723.862L1045.03 647.654L1045.21 647.546L1116.44 494.951L1198.93 450.763V449.219L1115.68 493.802L1115.49 493.91ZM1097.69 474.849L1026.46 627.444L884.185 703.652L884.005 703.76L812.777 856.355L670.48 932.563L670.299 932.67L619.677 1041.11H621.121L671.269 933.676L813.544 857.468L813.725 857.36L884.953 704.765L1027.25 628.557L1027.43 628.449L1098.66 475.854L1198.95 422.153V420.61L1097.89 474.741L1097.71 474.849H1097.69ZM1062.07 436.691L990.846 589.286L848.571 665.494L848.391 665.602L777.163 818.197L634.866 894.405L634.685 894.513L566.256 1041.11H567.7L635.656 895.518L777.953 819.31L778.134 819.202L849.361 666.607L991.636 590.399L991.817 590.292L1063.04 437.696L1198.98 364.899V363.355L1062.3 436.548L1062.12 436.655L1062.07 436.691ZM1008.83 837.186L1008.65 837.294L937.426 989.889L841.778 1041.11H844.644L938.193 991.002L938.373 990.894L1009.6 838.299L1151.88 762.091L1152.06 761.984L1198.93 661.582V658.494L1151.11 760.943L1008.83 837.15V837.186ZM991.027 818.125L990.846 818.233L919.619 970.828L788.335 1041.15H791.201L920.363 971.977L920.544 971.869L991.772 819.274L1134.05 743.066L1134.23 742.958L1198.91 604.399V601.312L1133.28 741.917L991.004 818.125H991.027ZM1079.88 913.609L1020.34 1041.15H1021.79L1080.85 914.651L1198.95 851.401V849.858L1080.08 913.538L1079.9 913.645L1079.88 913.609ZM83.5053 304.09L225.78 227.882L225.961 227.775L297.188 75.1795L439.463 -1.02837L439.644 -1.13605L510.894 -153.731L653.169 -229.939L653.35 -230.047L659.466 -243.149H658.021L652.402 -231.088L510.127 -154.88L509.946 -154.772L438.719 -2.17702L296.444 74.0308L296.263 74.1385L225.035 226.734L82.7605 302.942L82.5799 303.049L11.3522 455.644L0.0902759 461.675V463.219L12.3001 456.685L83.5278 304.09H83.5053ZM47.8914 494.843L119.119 342.248L261.394 266.04L261.575 265.932L332.802 113.337L475.077 37.1294L475.258 37.0217L546.553 -115.573L688.828 -191.781L689.009 -191.889L712.932 -243.113H711.487L688.038 -192.894L545.786 -116.686L545.605 -116.579L474.378 36.0166L332.103 112.224L331.922 112.332L260.694 264.927L118.419 341.135L118.239 341.243L46.9435 493.838L0.0677085 518.93V520.473L47.7108 494.951L47.8914 494.843ZM172.359 628.485L172.54 628.377L243.768 475.782L386.043 399.574L386.223 399.467L457.451 246.871L599.726 170.664L599.906 170.556L671.134 17.9608L813.409 -58.2471L813.59 -58.3547L884.817 -210.95L944.873 -243.113H942.007L884.05 -212.063L883.869 -211.955L812.642 -59.3598L670.344 16.848L670.164 16.9557L598.936 169.551L456.661 245.759L456.48 245.866L385.253 398.462L242.978 474.669L242.797 474.777L171.569 627.372L29.3171 703.58L29.1366 703.688L0.0677085 765.968V769.055L30.0845 704.693L172.359 628.485ZM154.552 609.424L154.733 609.317L225.961 456.721L368.236 380.513L368.416 380.406L439.644 227.811L581.941 151.603L582.122 151.495L653.35 -1.10014L795.625 -77.308L795.805 -77.4157L867.033 -230.011L891.475 -243.113H888.609L866.288 -231.16L866.108 -231.052L794.857 -78.4567L652.582 -2.24883L652.402 -2.14114L581.174 150.454L438.877 226.662L438.696 226.77L367.468 379.365L225.171 455.573L224.99 455.68L153.763 608.276L11.4876 684.483L11.3071 684.591L0.045139 708.713V711.8L12.255 685.632L154.53 609.424H154.552ZM36.7197 -243.113H33.8309L11.5102 -231.16L11.3296 -231.052L0.0677085 -206.93V-203.842L12.2775 -230.011L36.7197 -243.113ZM101.312 552.098L172.54 399.503L314.815 323.295L314.995 323.187L386.223 170.592L528.521 94.384L528.701 94.2763L599.951 -58.3188L742.226 -134.527L742.407 -134.634L793.029 -243.113H791.585L741.436 -135.675L599.162 -59.4675L598.981 -59.3598L527.731 93.2354L385.456 169.443L385.275 169.551L314.047 322.146L171.75 398.354L171.569 398.462L100.342 551.057L0.045139 604.758V606.301L101.109 552.17L101.29 552.062L101.312 552.098ZM83.5053 533.037L154.733 380.442L297.03 304.234L297.211 304.126L368.439 151.531L510.714 75.3231L510.894 75.2154L582.122 -77.3798L724.397 -153.588L724.577 -153.695L766.307 -243.077H764.863L723.607 -154.7L581.332 -78.4926L581.151 -78.3849L509.924 74.2103L367.649 150.418L367.468 150.526L296.241 303.121L153.943 379.329L153.763 379.437L82.5348 532.032L0.045139 576.22V577.764L83.3021 533.18L83.4827 533.073L83.5053 533.037ZM65.6983 513.976L136.926 361.381L279.224 285.173L279.404 285.065L350.632 132.47L492.907 56.2621L493.087 56.1545L564.36 -96.4766L706.635 -172.684L706.816 -172.792L739.631 -243.113H738.187L705.845 -173.833L563.593 -97.6253L563.412 -97.5176L492.185 55.0776L349.91 131.285L349.729 131.393L278.501 283.988L136.204 360.196L136.023 360.304L64.7956 512.899L0.112845 547.539V549.083L65.5629 514.048L65.7435 513.94L65.6983 513.976ZM47.8914 952.701L119.142 800.105L261.417 723.897L261.597 723.79L332.825 571.195L475.1 494.987L475.28 494.879L546.508 342.284L688.783 266.076L688.964 265.968L760.191 113.373L902.466 37.1653L902.647 37.0576L973.987 -115.573L1116.28 -191.781L1116.47 -191.889L1140.39 -243.113H1138.94L1115.52 -192.894L973.22 -116.686L973.039 -116.579L901.812 36.0166L759.537 112.224L759.356 112.332L688.128 264.927L545.854 341.135L545.673 341.243L474.445 493.838L332.17 570.046L331.99 570.154L260.762 722.749L118.487 798.957L118.307 799.064L47.0789 951.66L0.203121 976.751V978.295L47.8463 952.772L48.0268 952.665L47.8914 952.701ZM30.0845 933.604L101.312 781.009L243.587 704.801L243.768 704.693L314.995 552.098L457.27 475.89L457.451 475.782L528.679 323.187L670.953 246.979L671.134 246.871L742.362 94.2763L884.637 18.0685L884.817 17.9608L956.045 -134.634L1098.32 -210.842L1098.5 -210.95L1113.51 -243.113H1112.06L1097.53 -211.991L955.255 -135.783L955.074 -135.675L883.847 16.9198L741.572 93.1277L741.391 93.2354L670.164 245.831L527.889 322.038L527.708 322.146L456.48 474.741L314.205 550.949L314.025 551.057L242.797 703.652L100.522 779.86L100.342 779.967L29.1366 932.563L0.0677085 948.142V949.685L29.9039 933.711L30.0845 933.604ZM83.5053 761.912L225.78 685.704L225.961 685.596L297.188 533.001L439.463 456.793L439.644 456.685L510.872 304.09L653.147 227.882L653.327 227.775L724.555 75.1795L866.83 -1.02837L867.01 -1.13605L938.238 -153.731L1080.51 -229.939L1080.69 -230.047L1086.81 -243.149H1085.37L1079.75 -231.088L937.471 -154.88L937.29 -154.772L866.062 -2.17702L723.765 74.0308L723.584 74.1385L652.334 226.734L510.059 302.942L509.879 303.049L438.651 455.644L296.376 531.852L296.195 531.96L224.968 684.555L82.6928 760.763L82.5122 760.871L11.2619 913.466L0 919.496V921.04L12.2098 914.507L83.4376 761.912H83.5053ZM190.166 647.546L190.347 647.438L261.575 494.843L403.849 418.635L404.03 418.528L475.258 265.932L617.533 189.725L617.713 189.617L688.941 37.0217L831.216 -39.1861L831.396 -39.2938L902.624 -191.889L998.294 -243.113H995.428L901.857 -193.002L901.676 -192.894L830.448 -40.2989L688.174 35.909L687.993 36.0166L616.765 188.612L474.49 264.82L474.31 264.927L403.082 417.523L260.807 493.73L260.627 493.838L189.399 646.433L47.1241 722.641L46.9435 722.749L0.0677085 823.151V826.238L47.8914 723.79L190.166 647.582V647.546ZM83.5053 990.786L154.733 838.191L297.03 761.984L297.211 761.876L368.439 609.281L510.714 533.073L510.894 532.965L582.145 380.37L724.419 304.162L724.6 304.054L795.828 151.459L938.103 75.2513L938.283 75.1436L1009.51 -77.4516L1151.79 -153.659L1151.97 -153.767L1193.7 -243.149H1192.25L1151 -154.772L1008.72 -78.5644L1008.54 -78.4567L937.313 74.1385L795.038 150.346L794.857 150.454L723.63 303.049L581.355 379.257L581.174 379.365L509.924 531.96L367.649 608.168L367.468 608.276L296.241 760.871L153.943 837.078L153.763 837.186L82.5348 989.781L0.045139 1033.97V1035.51L83.3021 990.93L83.4827 990.822L83.5053 990.786ZM207.973 666.607L208.154 666.499L279.382 513.904L421.656 437.696L421.837 437.589L493.065 284.993L635.34 208.786L635.52 208.678L706.748 56.0827L849.023 -20.1252L849.203 -20.2329L920.431 -172.828L1051.71 -243.149H1048.85L919.664 -173.977L919.483 -173.869L848.255 -21.2739L705.981 54.934L705.8 55.0417L634.572 207.637L492.297 283.845L492.117 283.952L420.889 436.548L278.614 512.755L278.434 512.863L207.206 665.458L64.931 741.666L64.7504 741.774L0.0677085 880.334V883.421L65.6983 742.815L207.973 666.607ZM119.119 571.123L190.347 418.528L332.622 342.32L332.802 342.212L404.03 189.617L546.328 113.409L546.508 113.301L617.736 -39.2938L760.078 -115.466L760.259 -115.573L819.796 -243.113H818.352L759.311 -116.579L617.036 -40.3707L616.856 -40.263L545.628 112.332L403.353 188.54L403.172 188.648L331.945 341.243L189.67 417.451L189.489 417.558L118.262 570.154L0.135415 633.403V634.946L119.006 571.266L119.187 571.159L119.119 571.123ZM65.6983 971.726L136.926 819.13L279.224 742.923L279.404 742.815L350.632 590.22L492.907 514.012L493.087 513.904L564.315 361.309L706.59 285.101L706.77 284.993L777.998 132.398L920.273 56.1903L920.454 56.0827L991.681 -96.5125L1133.96 -172.72L1134.14 -172.828L1166.95 -243.149H1165.51L1133.17 -173.869L990.891 -97.6612L990.711 -97.5535L919.483 55.0417L777.208 131.25L777.028 131.357L705.8 283.952L563.525 360.16L563.345 360.268L492.117 512.863L349.842 589.071L349.661 589.179L278.434 741.774L136.136 817.982L135.956 818.089L64.7279 970.685L0.045139 1005.32V1006.87L65.4952 971.833L65.6758 971.726H65.6983ZM30.0845 475.782L101.312 323.187L243.587 246.979L243.768 246.871L314.995 94.2763L457.27 18.0685L457.451 17.9608L528.746 -134.634L671.021 -210.842L671.202 -210.95L686.21 -243.113H684.766L670.231 -211.991L527.979 -135.747L527.798 -135.639L456.571 16.9557L314.296 93.1635L314.115 93.2712L242.887 245.866L100.613 322.074L100.432 322.182L29.1366 474.741L0.0677085 490.32V491.864L29.9039 475.89L30.0845 475.782ZM65.6983 56.1186L136.949 -96.4766L279.224 -172.684L279.404 -172.792L312.219 -243.113H310.775L278.434 -173.833L136.181 -97.6253L136.001 -97.5176L64.7504 55.1134L0.0677085 89.7534V91.2969L65.5178 56.2621L65.6983 56.1545V56.1186ZM101.312 94.2763L172.562 -58.3188L314.837 -134.527L315.018 -134.634L365.64 -243.113H364.196L314.07 -135.675L171.795 -59.4675L171.615 -59.3598L100.364 93.2354L0.0677085 146.936V148.48L101.132 94.3481L101.312 94.2404V94.2763ZM119.119 113.337L190.347 -39.2579L332.644 -115.466L332.825 -115.573L392.362 -243.113H390.917L331.9 -116.579L189.625 -40.3707L189.444 -40.263L118.216 112.332L0.0677085 175.581V177.125L118.939 113.445L119.119 113.337ZM83.5053 75.1795L154.756 -77.4157L297.03 -153.624L297.211 -153.731L338.941 -243.113H337.497L296.241 -154.736L153.988 -78.5285L153.808 -78.4208L82.5574 74.1744L0.0677085 118.363V119.906L83.3247 75.3231L83.5053 75.2154V75.1795ZM136.926 132.398L208.154 -20.197L350.474 -96.3689L350.654 -96.4766L419.106 -243.077H417.662L349.707 -97.5176L207.432 -21.3098L207.251 -21.2021L136.023 131.393L0.0677085 204.191V205.734L136.746 132.542L136.926 132.434V132.398ZM90.1405 -243.113H87.2743L29.3171 -212.063L29.1366 -211.955L0.0677085 -149.711V-146.624L30.0845 -210.95L90.1405 -243.113ZM197.005 -243.113H194.138L64.931 -173.905L64.7504 -173.797L0.0677085 -35.2375V-32.1505L65.6983 -172.792L196.982 -243.113H197.005ZM143.584 -243.113H140.718L47.1241 -193.002L46.9435 -192.894L0.0677085 -92.4562V-89.3692L47.8914 -191.853L143.561 -243.077L143.584 -243.113ZM154.575 151.603L154.756 151.495L225.983 -1.10014L368.258 -77.308L368.439 -77.4157L439.667 -230.011L464.109 -243.113H461.242L438.922 -231.16L438.741 -231.052L367.513 -78.4567L225.216 -2.24883L225.035 -2.14114L153.808 150.454L11.5102 226.662L11.3296 226.77L0.0677085 250.892V253.979L12.2775 227.811L154.552 151.603H154.575ZM47.8914 37.0576L119.142 -115.573L261.417 -191.781L261.597 -191.889L285.52 -243.113H284.076L260.627 -192.894L118.374 -116.686L118.194 -116.579L46.9435 36.0166L0.0677085 61.1082V62.6517L47.7108 37.1294L47.8914 37.0217V37.0576ZM207.996 208.857L208.176 208.75L279.404 56.1545L421.679 -20.0534L421.86 -20.1611L493.087 -172.756L624.371 -243.077H621.505L492.32 -173.905L492.139 -173.797L420.912 -21.2021L278.637 55.0058L278.456 55.1134L207.228 207.709L64.931 283.917L64.7504 284.024L0.0677085 422.584V425.671L65.6983 285.029L207.973 208.821L207.996 208.857ZM172.382 170.7L172.562 170.592L243.79 17.9967L386.065 -58.2112L386.246 -58.3188L457.473 -210.914L517.53 -243.077H514.663L456.706 -212.027L456.526 -211.919L385.298 -59.324L243.023 16.8839L242.842 16.9916L171.615 169.587L29.3171 245.759L29.1366 245.866L0.0677085 308.146V311.234L30.0845 246.871L172.359 170.664L172.382 170.7ZM190.189 189.761L190.369 189.653L261.62 37.0576L403.895 -39.1502L404.075 -39.2579L475.303 -191.853L570.973 -243.077H568.107L474.536 -192.966L474.355 -192.858L403.127 -40.263L260.852 35.9448L260.672 36.0525L189.444 188.648L47.1241 264.82L46.9435 264.927L0.0677085 365.329V368.416L47.8914 265.968L190.166 189.761H190.189ZM30.0845 17.9608L101.312 -134.634L243.587 -210.842L243.768 -210.95L258.776 -243.113H257.332L242.797 -211.991L100.567 -135.747L100.387 -135.639L29.1366 16.9557L0.0677085 32.5347V34.0782L29.9039 18.0685L30.0845 17.9608ZM83.5053 -153.695L225.78 -229.903L225.961 -230.011L232.077 -243.113H230.632L225.013 -231.052L82.7379 -154.844L82.5574 -154.736L11.3296 -2.14114L0.0677085 3.88943V5.43298L12.2775 -1.10014L83.5053 -153.695ZM136.926 590.256L208.154 437.66L350.429 361.453L350.609 361.345L421.837 208.75L564.134 132.542L564.315 132.434L635.543 -20.1611L777.84 -96.3689L778.021 -96.4766L846.472 -243.077H845.028L777.073 -97.4817L634.775 -21.2739L634.595 -21.1662L563.367 131.429L421.07 207.637L420.889 207.745L349.661 360.34L207.386 436.548L207.206 436.655L135.978 589.25L0.045139 662.048V663.592L136.723 590.399L136.903 590.292L136.926 590.256Z" fill="white" fill-opacity="0.2"/>
</svg>
