<svg width="745" height="798" viewBox="0 0 745 798" fill="none" xmlns="http://www.w3.org/2000/svg">
<path d="M626.84 386.755L626.728 386.822L582.47 481.637L494.068 528.989L493.956 529.056L449.698 623.871L361.295 671.223L361.183 671.29L316.926 766.105L257.481 797.933H259.262L317.389 766.796L317.501 766.729L361.772 671.914L450.175 624.562L450.287 624.495L494.559 529.68L582.961 482.328L583.073 482.262L627.331 387.446L715.734 340.095L715.846 340.028L744.972 277.643V275.725L715.257 339.381L626.854 386.733L626.84 386.755ZM615.776 374.911L615.664 374.978L571.406 469.794L483.003 517.145L482.891 517.212L438.634 612.027L350.231 659.379L350.119 659.446L305.861 754.261L224.288 797.955H226.069L306.324 754.975L306.436 754.908L350.694 660.093L439.097 612.741L439.209 612.674L483.466 517.859L571.869 470.507L571.981 470.44L616.238 375.625L704.641 328.273L704.753 328.206L744.944 242.112V240.194L704.164 327.56L615.762 374.911H615.776ZM659.921 137.929L615.664 232.744L527.261 280.096L527.149 280.163L482.891 374.978L394.475 422.33L394.362 422.397L350.105 517.212L261.688 564.564L261.576 564.631L217.319 659.446L128.916 706.798L128.804 706.865L86.2852 797.955H87.1826L129.407 707.49L217.809 660.138L217.922 660.071L262.179 565.256L350.596 517.904L350.708 517.837L394.965 423.022L483.382 375.67L483.494 375.603L527.752 280.788L616.154 233.436L616.266 233.369L660.524 138.554L744.986 93.3208V92.3617L660.061 137.84L659.949 137.907L659.921 137.929ZM670.985 149.773L626.728 244.588L538.325 291.94L538.213 292.007L493.956 386.822L405.539 434.174L405.427 434.241L361.169 529.056L272.753 576.408L272.64 576.475L228.383 671.29L139.966 718.642L139.854 718.709L102.861 797.955H103.758L140.457 719.355L228.86 672.004L228.972 671.937L273.229 577.121L361.646 529.77L361.758 529.703L406.016 434.887L494.418 387.536L494.531 387.469L538.802 292.654L627.205 245.302L627.317 245.235L671.588 150.42L744.972 111.12V110.16L671.112 149.728L670.999 149.795L670.985 149.773ZM726.307 493.503L682.05 588.318L593.647 635.67L593.535 635.737L549.277 730.552L460.875 777.904L460.762 777.971L451.437 797.955H452.335L461.365 778.618L549.768 731.266L549.88 731.199L594.138 636.384L682.54 589.032L682.653 588.965L726.91 494.15L744.972 484.47V483.511L726.433 493.436L726.321 493.503H726.307ZM737.371 505.346L693.114 600.162L604.711 647.513L604.599 647.58L560.342 742.396L471.939 789.747L471.827 789.814L468.027 797.933H468.924L472.416 790.439L560.819 743.087L560.931 743.02L605.188 648.205L693.605 600.853L693.717 600.786L737.974 505.971L744.972 502.224V501.265L737.498 505.257L737.385 505.324L737.371 505.346ZM648.969 410.464L648.857 410.531L604.599 505.346L516.196 552.698L516.084 552.765L471.827 647.58L383.424 694.932L383.312 694.999L339.055 789.814L323.881 797.933H325.662L339.531 790.506L339.644 790.439L383.901 695.624L472.304 648.272L472.416 648.205L516.673 553.39L605.076 506.038L605.188 505.971L649.446 411.156L737.848 363.804L737.96 363.737L744.958 348.749V346.83L737.371 363.09L648.969 410.442V410.464ZM637.904 398.621L637.792 398.688L593.535 493.503L505.132 540.855L505.02 540.922L460.762 635.737L372.36 683.089L372.248 683.156L327.99 777.971L290.688 797.955H292.469L328.467 778.685L328.579 778.618L372.837 683.802L461.239 636.451L461.352 636.384L505.609 541.568L594.012 494.217L594.124 494.15L638.381 399.335L726.784 351.983L726.896 351.916L744.958 313.218V311.3L726.307 351.269L637.904 398.621ZM715.243 197.192L670.985 292.007L582.583 339.359L582.47 339.425L538.213 434.241L449.81 481.592L449.698 481.659L405.441 576.475L317.038 623.826L316.926 623.893L272.668 718.709L184.266 766.06L184.154 766.127L169.289 797.955H170.186L184.743 766.752L273.145 719.4L273.257 719.333L317.515 624.518L405.917 577.166L406.03 577.099L450.287 482.284L538.69 434.932L538.802 434.865L583.059 340.05L671.462 292.698L671.574 292.631L715.832 197.816L744.958 182.225V181.266L715.355 197.125L715.243 197.192ZM737.371 220.901L693.114 315.716L604.711 363.068L604.599 363.135L560.342 457.95L471.939 505.302L471.827 505.369L427.555 600.184L339.153 647.536L339.041 647.603L294.783 742.418L206.38 789.77L206.268 789.837L202.468 797.955H203.365L206.857 790.461L295.26 743.109L295.372 743.042L339.63 648.227L428.032 600.875L428.144 600.808L472.416 505.993L560.819 458.641L560.931 458.575L605.188 363.759L693.605 316.408L693.717 316.341L737.974 221.525L744.972 217.778V216.819L737.498 220.812L737.385 220.879L737.371 220.901ZM726.307 209.057L682.05 303.873L593.647 351.224L593.535 351.291L549.277 446.107L460.875 493.458L460.762 493.525L416.505 588.34L328.102 635.692L327.99 635.759L283.733 730.574L195.33 777.926L195.218 777.993L185.892 797.978H186.79L195.821 778.64L284.224 731.288L284.336 731.221L328.593 636.406L416.996 589.054L417.108 588.987L461.365 494.172L549.768 446.82L549.88 446.753L594.138 351.938L682.54 304.586L682.653 304.519L726.91 209.704L744.972 200.024V199.065L726.433 208.99L726.321 209.057H726.307ZM682.05 161.639L637.778 256.454L549.376 303.806L549.263 303.873L505.006 398.688L416.603 446.04L416.491 446.107L372.234 540.922L283.831 588.273L283.719 588.34L239.461 683.156L151.059 730.507L150.946 730.574L119.492 797.955H120.39L151.549 731.199L239.952 683.847L240.064 683.78L284.322 588.965L372.724 541.613L372.837 541.546L417.094 446.731L505.497 399.379L505.609 399.312L549.866 304.497L638.283 257.145L638.395 257.078L682.653 162.263L744.972 128.896V127.937L682.176 161.572L682.064 161.639H682.05ZM648.969 126.019L648.857 126.086L604.599 220.901L516.196 268.253L516.084 268.32L471.827 363.135L383.424 410.487L383.312 410.554L339.055 505.369L250.652 552.721L250.54 552.788L206.282 647.603L117.88 694.955L117.767 695.021L73.51 789.837L58.3368 797.955H60.1177L73.9868 790.528L74.0989 790.461L118.356 695.646L206.759 648.294L206.871 648.227L251.129 553.412L339.545 506.06L339.658 505.993L383.915 411.178L472.318 363.826L472.43 363.759L516.687 268.944L605.09 221.592L605.202 221.525L649.46 126.71L737.862 79.3361L737.974 79.2692L744.972 64.2807V62.3626L737.385 78.6223L648.983 125.974L648.969 126.019ZM693.114 173.504L648.857 268.32L560.44 315.671L560.328 315.738L516.07 410.554L427.668 457.905L427.555 457.972L383.298 552.788L294.895 600.139L294.783 600.206L250.526 695.021L162.123 742.373L162.011 742.44L136.082 797.978H136.979L162.6 743.087L251.002 695.735L251.115 695.668L295.372 600.853L383.775 553.501L383.887 553.434L428.144 458.619L516.547 411.267L516.659 411.2L560.917 316.385L649.333 269.033L649.446 268.966L693.703 174.151L744.958 146.695V145.736L693.226 173.438L693.114 173.504ZM715.243 481.682L670.985 576.497L582.583 623.849L582.47 623.916L538.213 718.731L449.796 766.083L449.684 766.15L434.819 797.978H435.717L450.273 766.774L538.676 719.422L538.788 719.355L583.045 624.54L671.448 577.188L671.56 577.121L715.818 482.306L744.944 466.716V465.757L715.341 481.615L715.229 481.682H715.243ZM726.307 66.8457L637.904 114.198L637.792 114.264L593.535 209.08L505.132 256.431L505.02 256.498L460.762 351.314L372.36 398.665L372.248 398.732L327.99 493.548L239.588 540.899L239.475 540.966L195.218 635.781L106.815 683.133L106.703 683.2L62.4456 778.015L25.1437 798H26.9247L62.9224 778.729L63.0346 778.662L107.292 683.847L195.695 636.495L195.807 636.428L240.064 541.613L328.481 494.261L328.593 494.194L372.851 399.379L461.253 352.027L461.365 351.96L505.623 257.145L594.026 209.793L594.138 209.726L638.395 114.911L726.798 67.5594L726.91 67.4925L744.972 28.817V26.8989L726.321 66.868L726.307 66.8457ZM704.178 185.37L659.921 280.185L571.504 327.537L571.392 327.604L527.135 422.419L438.732 469.771L438.62 469.838L394.362 564.653L305.96 612.005L305.847 612.072L261.59 706.887L173.187 754.239L173.075 754.306L152.685 798H153.583L173.678 754.953L262.081 707.601L262.193 707.534L306.464 612.719L394.867 565.367L394.979 565.3L439.251 470.485L527.654 423.133L527.766 423.066L572.023 328.251L660.44 280.899L660.552 280.832L704.809 186.017L745 164.494V163.534L704.333 185.303L704.22 185.37H704.178ZM682.05 730.597L650.595 797.978H651.493L682.653 731.221L744.972 697.854V696.895L682.176 730.53L682.064 730.597H682.05ZM693.114 742.44L667.185 797.978H668.082L693.717 743.087L744.972 715.631V714.671L693.24 742.373L693.128 742.44H693.114ZM659.921 706.887L617.402 797.978H618.3L660.524 707.512L744.986 662.279V661.32L660.061 706.798L659.949 706.865L659.921 706.887ZM704.178 754.306L683.789 798H684.686L704.781 754.953L744.972 733.429V732.47L704.305 754.239L704.192 754.306H704.178ZM648.969 694.977L648.857 695.044L604.599 789.859L589.426 797.978H591.207L605.076 790.55L605.188 790.483L649.446 695.668L737.848 648.316L737.96 648.249L744.958 633.261V631.343L737.371 647.603L648.969 694.955V694.977ZM737.371 789.859L733.571 797.978H734.469L737.96 790.483L744.958 786.736V785.777L737.484 789.77L737.371 789.837V789.859ZM726.307 778.015L716.982 798H717.879L726.91 778.662L744.972 768.982V768.023L726.433 777.948L726.321 778.015H726.307ZM704.178 469.838L659.921 564.653L571.504 612.005L571.392 612.072L527.135 706.887L438.732 754.239L438.62 754.306L418.23 798H419.127L439.223 754.953L527.625 707.601L527.738 707.534L571.995 612.719L660.412 565.367L660.524 565.3L704.781 470.485L744.972 448.961V448.002L704.305 469.771L704.192 469.838H704.178ZM715.243 766.15L700.378 797.978H701.276L715.832 766.774L744.958 751.183V750.224L715.355 766.083L715.243 766.15ZM637.904 683.111L637.792 683.178L593.535 777.993L556.233 797.978H558.014L594.012 778.707L594.124 778.64L638.381 683.825L726.784 636.473L726.896 636.406L744.958 597.708V595.79L726.307 635.759L637.904 683.111ZM670.985 434.263L626.728 529.078L538.325 576.43L538.213 576.497L493.956 671.312L405.539 718.664L405.427 718.731L368.433 797.978H369.331L406.03 719.378L494.432 672.026L494.545 671.959L538.802 577.144L627.205 529.792L627.317 529.725L671.574 434.91L744.958 395.61V394.651L671.097 434.218L670.985 434.285V434.263ZM693.114 457.972L648.857 552.788L560.44 600.139L560.328 600.206L516.07 695.021L427.668 742.373L427.555 742.44L401.626 797.978H402.524L428.144 743.087L516.547 695.735L516.659 695.668L560.917 600.853L649.333 553.501L649.446 553.434L693.703 458.619L744.958 431.163V430.204L693.226 457.905L693.114 457.972ZM682.05 446.129L637.792 540.944L549.39 588.296L549.277 588.363L505.02 683.178L416.603 730.53L416.491 730.597L385.037 797.978H385.934L417.094 731.221L505.497 683.869L505.609 683.802L549.866 588.987L638.283 541.635L638.395 541.568L682.653 446.753L744.972 413.386V412.427L682.176 446.062L682.064 446.129H682.05ZM659.921 422.419L615.664 517.235L527.261 564.586L527.149 564.653L482.891 659.469L394.475 706.82L394.362 706.887L351.844 797.978H352.741L394.965 707.512L483.382 660.16L483.494 660.093L527.752 565.278L616.154 517.926L616.266 517.859L660.524 423.044L744.986 377.811V376.852L660.061 422.33L659.949 422.397L659.921 422.419ZM626.84 671.267L626.728 671.334L582.47 766.15L523.04 797.978H524.821L582.947 766.841L583.059 766.774L627.317 671.959L715.719 624.607L715.832 624.54L744.958 562.155V560.237L715.243 623.893L626.84 671.245V671.267ZM615.776 659.424L615.664 659.491L571.406 754.306L489.833 798H491.614L571.869 755.02L571.981 754.953L616.238 660.138L704.641 612.786L704.753 612.719L744.944 526.625V524.706L704.164 612.072L615.762 659.424H615.776ZM670.985 718.753L633.992 798H634.889L671.588 719.4L744.972 680.1V679.141L671.112 718.709L670.999 718.775L670.985 718.753ZM51.8861 340.028L140.289 292.676L140.401 292.609L184.658 197.794L273.061 150.442L273.173 150.375L317.445 55.5598L405.847 8.20795L405.96 8.14104L409.76 0H408.862L405.371 7.49422L316.968 54.8461L316.856 54.913L272.598 149.728L184.196 197.08L184.083 197.147L139.826 291.962L51.4233 339.314L51.3111 339.381L7.0537 434.196L0.056093 437.943V438.902L7.64268 434.843L51.9001 340.028H51.8861ZM29.7574 458.552L74.0148 363.737L162.417 316.385L162.53 316.318L206.787 221.503L295.19 174.151L295.302 174.084L339.601 79.2692L428.004 31.9173L428.116 31.8504L442.981 0.022309H442.083L427.513 31.2259L339.125 78.5777L339.012 78.6446L294.755 173.46L206.352 220.812L206.24 220.879L161.983 315.694L73.5801 363.046L73.4679 363.113L29.1684 457.928L0.0420708 473.518V474.477L29.6452 458.619L29.7574 458.552ZM107.096 541.591L107.208 541.524L151.465 446.709L239.868 399.357L239.98 399.29L284.238 304.475L372.64 257.123L372.752 257.056L417.01 162.241L505.413 114.889L505.525 114.822L549.782 20.0069L587.098 0.022309H585.317L549.305 19.3154L549.193 19.3824L504.936 114.198L416.519 161.549L416.407 161.616L372.149 256.431L283.747 303.783L283.635 303.85L239.377 398.665L150.974 446.017L150.862 446.084L106.605 540.899L18.2162 588.251L18.104 588.318L0.0420708 627.016V628.934L18.693 588.943L107.096 541.591ZM96.0313 529.747L96.1435 529.68L140.401 434.865L228.804 387.513L228.916 387.446L273.173 292.631L361.59 245.279L361.702 245.212L405.96 150.397L494.362 103.045L494.474 102.979L538.732 8.16334L553.919 0.022309H552.138L538.269 7.44961L538.157 7.51652L493.885 102.332L405.483 149.684L405.371 149.75L361.113 244.566L272.696 291.917L272.584 291.984L228.327 386.8L139.91 434.151L139.798 434.218L95.5405 529.034L7.13784 576.385L7.02566 576.452L0.0280472 591.441V593.359L7.61463 577.099L96.0173 529.747H96.0313ZM22.8159 0.022309H21.0209L7.15187 7.44961L7.03968 7.51652L0.0420708 22.5049V24.4231L7.62866 8.16334L22.8159 0.022309ZM62.9504 494.127L107.208 399.312L195.611 351.96L195.723 351.893L239.98 257.078L328.397 209.726L328.509 209.66L372.78 114.844L461.183 67.4925L461.295 67.4256L492.75 0.022309H491.852L460.692 66.7788L372.29 114.131L372.177 114.198L327.906 209.013L239.503 256.365L239.391 256.431L195.134 351.247L106.717 398.599L106.605 398.665L62.3474 493.481L0.0280472 526.848V527.807L62.8242 494.172L62.9364 494.105L62.9504 494.127ZM51.8861 482.284L96.1435 387.469L184.56 340.117L184.672 340.05L228.93 245.235L317.333 197.883L317.445 197.816L361.702 103.001L450.105 55.649L450.217 55.5821L476.146 0.0446094H475.249L449.614 54.9576L361.211 102.309L361.099 102.376L316.842 197.192L228.439 244.543L228.327 244.61L184.069 339.425L95.6527 386.777L95.5405 386.844L51.2831 481.659L0.0280472 509.116V510.075L51.7599 482.373L51.8721 482.306L51.8861 482.284ZM40.8217 470.44L85.0792 375.625L173.496 328.273L173.608 328.206L217.865 233.391L306.268 186.039L306.38 185.973L350.666 91.135L439.069 43.7832L439.181 43.7163L459.57 0.022309H458.673L438.578 43.0694L350.189 90.4213L350.077 90.4882L305.819 185.303L217.417 232.655L217.305 232.722L173.047 327.537L84.6304 374.889L84.5182 374.956L40.2608 469.771L0.0701166 491.295V492.254L40.7376 470.485L40.8498 470.418L40.8217 470.44ZM29.7574 743.042L74.0288 648.227L162.432 600.875L162.544 600.808L206.801 505.993L295.204 458.641L295.316 458.575L339.573 363.759L427.976 316.408L428.088 316.341L472.346 221.525L560.748 174.174L560.861 174.107L605.188 79.2692L693.605 31.9173L693.717 31.8504L708.582 0.022309H707.684L693.128 31.2259L604.711 78.5777L604.599 78.6446L560.342 173.46L471.939 220.812L471.827 220.879L427.569 315.694L339.167 363.046L339.055 363.113L294.797 457.928L206.394 505.28L206.282 505.346L162.025 600.162L73.6222 647.513L73.51 647.58L29.2525 742.396L0.12621 757.986V758.945L29.7293 743.087L29.8415 743.02L29.7574 743.042ZM18.693 731.177L62.9504 636.361L151.353 589.01L151.465 588.943L195.723 494.127L284.125 446.776L284.238 446.709L328.495 351.893L416.898 304.542L417.01 304.475L461.267 209.66L549.67 162.308L549.782 162.241L594.04 67.4256L682.442 20.0738L682.555 20.0069L691.88 0.022309H690.982L681.951 19.3601L593.549 66.7119L593.437 66.7788L549.179 161.594L460.777 208.946L460.664 209.013L416.407 303.828L328.004 351.18L327.892 351.247L283.635 446.062L195.232 493.414L195.12 493.481L150.862 588.296L62.4596 635.648L62.3474 635.715L18.104 730.53L0.0420708 740.21V741.169L18.5808 731.243L18.693 731.177ZM51.8861 624.495L140.289 577.144L140.401 577.077L184.658 482.262L273.061 434.91L273.173 434.843L317.431 340.028L405.833 292.676L405.946 292.609L450.203 197.794L538.606 150.442L538.718 150.375L582.975 55.5598L671.378 8.20795L671.49 8.14104L675.29 0H674.393L670.901 7.49422L582.498 54.8461L582.386 54.913L538.129 149.728L449.712 197.08L449.6 197.147L405.329 291.962L316.926 339.314L316.814 339.381L272.556 434.196L184.154 481.548L184.041 481.615L139.784 576.43L51.3812 623.782L51.2691 623.849L6.99761 718.664L0 722.411V723.37L7.58659 719.311L51.844 624.495H51.8861ZM118.16 553.434L118.272 553.367L162.53 458.552L250.932 411.2L251.045 411.133L295.302 316.318L383.705 268.966L383.817 268.9L428.074 174.084L516.477 126.733L516.589 126.666L560.847 31.8504L620.291 0.022309H618.51L560.37 31.159L560.258 31.2259L516 126.041L427.597 173.393L427.485 173.46L383.228 268.275L294.825 315.627L294.713 315.694L250.456 410.509L162.053 457.861L161.941 457.928L117.683 552.743L29.2806 600.095L29.1684 600.162L0.0420708 662.547V664.465L29.7574 600.808L118.16 553.457V553.434ZM51.8861 766.707L96.1435 671.892L184.56 624.54L184.672 624.473L228.93 529.658L317.333 482.306L317.445 482.239L361.716 387.424L450.119 340.072L450.231 340.005L494.488 245.19L582.891 197.838L583.003 197.771L627.261 102.956L715.663 55.6044L715.776 55.5375L741.705 0H740.807L715.173 54.913L626.77 102.265L626.658 102.332L582.4 197.147L493.998 244.499L493.885 244.566L449.628 339.381L361.225 386.733L361.113 386.8L316.842 481.615L228.439 528.967L228.327 529.034L184.069 623.849L95.6527 671.201L95.5405 671.267L51.2831 766.083L0.0280472 793.539V794.498L51.7599 766.796L51.8721 766.729L51.8861 766.707ZM129.224 565.278L129.337 565.211L173.594 470.396L261.997 423.044L262.109 422.977L306.366 328.162L394.769 280.81L394.881 280.743L439.139 185.928L527.541 138.576L527.654 138.509L571.911 43.6939L653.484 0H651.703L571.434 42.9802L571.322 43.0471L527.065 137.862L438.662 185.214L438.55 185.281L394.292 280.096L305.89 327.448L305.777 327.515L261.52 422.33L173.117 469.682L173.005 469.749L128.748 564.564L40.3449 611.916L40.2328 611.983L0.0420708 698.077V699.995L40.8217 612.63L129.224 565.278ZM74.0148 505.949L118.272 411.133L206.675 363.782L206.787 363.715L251.045 268.9L339.461 221.548L339.573 221.481L383.831 126.666L472.276 79.3361L472.388 79.2692L509.381 0.022309H508.484L471.799 78.6446L383.396 125.996L383.284 126.063L339.027 220.879L250.624 268.23L250.512 268.297L206.254 363.113L117.852 410.464L117.739 410.531L73.4819 505.346L0.0841402 544.646V545.606L73.9447 506.038L74.0569 505.971L74.0148 505.949ZM40.8217 754.864L85.0792 660.048L173.496 612.697L173.608 612.63L217.865 517.815L306.268 470.463L306.38 470.396L350.638 375.581L439.04 328.229L439.153 328.162L483.41 233.347L571.813 185.995L571.925 185.928L616.182 91.1127L704.585 43.7609L704.697 43.6939L725.087 0H724.19L704.094 43.0471L615.692 90.399L615.579 90.4659L571.322 185.281L482.919 232.633L482.807 232.7L438.55 327.515L350.147 374.867L350.035 374.934L305.777 469.749L217.375 517.101L217.262 517.168L173.005 611.983L84.5883 659.335L84.4762 659.402L40.2187 754.217L0.0280472 775.74V776.699L40.6955 754.931L40.8077 754.864H40.8217ZM18.693 446.709L62.9504 351.893L151.353 304.542L151.465 304.475L195.723 209.66L284.125 162.308L284.238 162.241L328.537 67.4256L416.94 20.0738L417.052 20.0069L426.377 0.022309H425.48L416.449 19.3601L328.06 66.7342L327.948 66.8011L283.691 161.616L195.288 208.968L195.176 209.035L150.918 303.85L62.5157 351.202L62.4035 351.269L18.104 446.062L0.0420708 455.742V456.701L18.5808 446.776L18.693 446.709ZM40.8217 185.95L85.0932 91.135L173.496 43.7832L173.608 43.7163L193.998 0.022309H193.1L173.005 43.0694L84.6164 90.4213L84.5042 90.4882L40.2328 185.326L0.0420708 206.849V207.808L40.7095 186.039L40.8217 185.973V185.95ZM62.9504 209.66L107.222 114.844L195.625 67.4925L195.737 67.4256L227.191 0.022309H226.293L195.148 66.7788L106.745 114.131L106.633 114.198L62.3615 209.013L0.0420708 242.38V243.339L62.8383 209.704L62.9504 209.637V209.66ZM74.0148 221.503L118.272 126.688L206.689 79.3361L206.801 79.2692L243.795 0.022309H242.897L206.226 78.6446L117.823 125.996L117.711 126.063L73.4539 220.879L0.0420708 260.179V261.138L73.9026 221.57L74.0148 221.503ZM51.8861 197.794L96.1575 102.979L184.56 55.6267L184.672 55.5598L210.601 0.022309H209.704L184.069 54.9353L95.6808 102.287L95.5686 102.354L51.2971 197.169L0.0420708 224.626V225.585L51.7739 197.883L51.8861 197.816V197.794ZM85.0792 233.347L129.337 138.531L217.767 91.2019L217.88 91.135L260.412 0.0446094H259.515L217.291 90.4882L128.888 137.84L128.776 137.907L84.5182 232.722L0.0420708 277.955V278.914L84.967 233.436L85.0792 233.369V233.347ZM56.0089 0.022309H54.228L18.2162 19.3154L18.104 19.3824L0.0420708 58.0579V59.976L18.693 20.0069L56.0089 0.022309ZM122.409 0.022309H120.628L40.3449 43.0248L40.2328 43.0917L0.0420708 129.186V131.104L40.8217 43.7163L122.395 0.022309H122.409ZM89.216 0.022309H87.4351L29.2806 31.159L29.1684 31.2259L0.0420708 93.6331V95.5512L29.7574 31.8727L89.202 0.0446094L89.216 0.022309ZM96.0453 245.279L96.1575 245.212L140.415 150.397L228.818 103.045L228.93 102.979L273.187 8.16334L288.374 0.022309H286.594L272.725 7.44961L272.612 7.51652L228.355 102.332L139.938 149.684L139.826 149.75L95.5686 244.566L7.15187 291.917L7.03968 291.984L0.0420708 306.973V308.891L7.62866 292.631L96.0313 245.279H96.0453ZM29.7574 174.107L74.0288 79.2692L162.432 31.9173L162.544 31.8504L177.408 0.022309H176.511L161.941 31.2259L73.552 78.5777L73.4398 78.6446L29.1684 173.46L0.0420708 189.05V190.01L29.6452 174.151L29.7574 174.084V174.107ZM129.238 280.855L129.351 280.788L173.608 185.973L262.011 138.621L262.123 138.554L306.38 43.7386L387.954 0.0446094H386.173L305.904 43.0248L305.791 43.0917L261.534 137.907L173.131 185.259L173.019 185.326L128.762 280.141L40.3449 327.493L40.2328 327.56L0.0420708 413.654V415.572L40.8217 328.184L129.224 280.832L129.238 280.855ZM107.11 257.145L107.222 257.078L151.479 162.263L239.882 114.911L239.994 114.844L284.252 20.0292L321.568 0.0446094H319.787L283.775 19.3378L283.663 19.4047L239.405 114.22L151.003 161.572L150.89 161.639L106.633 256.454L18.2162 303.783L18.104 303.85L0.0420708 342.548V344.466L18.693 304.475L107.096 257.123L107.11 257.145ZM118.174 268.989L118.286 268.922L162.558 174.107L250.96 126.755L251.073 126.688L295.33 31.8727L354.775 0.0446094H352.994L294.853 31.1813L294.741 31.2482L250.484 126.063L162.081 173.415L161.969 173.482L117.711 268.297L29.2806 315.627L29.1684 315.694L0.0420708 378.079V379.997L29.7574 316.341L118.16 268.989H118.174ZM18.693 162.241L62.9504 67.4256L151.353 20.0738L151.465 20.0069L160.791 0.022309H159.893L150.862 19.3601L62.4877 66.7342L62.3755 66.8011L18.104 161.616L0.0420708 171.296V172.255L18.5808 162.308L18.693 162.241ZM51.8861 55.5821L140.289 8.23025L140.401 8.16334L144.201 0.022309H143.304L139.812 7.51652L51.4093 54.8684L51.2971 54.9353L7.03968 149.75L0.0420708 153.498V154.457L7.62866 150.397L51.8861 55.5821ZM85.0792 517.837L129.337 423.022L217.739 375.67L217.851 375.603L262.109 280.788L350.526 233.436L350.638 233.369L394.895 138.554L483.312 91.2019L483.424 91.135L525.957 0.0446094H525.059L482.835 90.5105L394.418 137.862L394.306 137.929L350.049 232.744L261.632 280.096L261.52 280.163L217.262 374.978L128.86 422.33L128.748 422.397L84.4902 517.212L0.0280472 562.445V563.404L84.953 517.926L85.0651 517.859L85.0792 517.837Z" fill="white" fill-opacity="0.2"/>
</svg>
